<svg xmlns="http://www.w3.org/2000/svg" width="78.674" height="90.844" viewBox="0 0 78.674 90.844"><g id="icon-branding" transform="translate(0)"><g id="Group_24" data-name="Group 24" transform="translate(14.707 0)"><path id="Path_142" data-name="Path 142" d="M62.521,40.954l-4.527,6.233c-2.27,3.125-1.567,8.662,1.532,10.9l8.392,6.059c1.44,1.04,1.554,2.07.871,3.169l1.219.905,4.248-5.885c2.626-3.637,2.4-8.585-1.5-11.422L64.3,44.75a2.122,2.122,0,0,1-.557-2.925ZM69.783,13.4l-7.047,9.746c-3.3,4.571-2.1,12.376,2.412,15.69l11.586,8.5c2.349,1.724,2.654,6.113.945,8.364l.983.737,7.991-11.244c3.589-5.049,3.38-12.509-2.254-16.6C70.271,18.333,69.4,16.193,70.849,14.149Z" transform="translate(-56.66 -13.395)" fill="#000422" fill-rule="evenodd"></path><path id="Path_152" data-name="Path 152" d="M-.148-9.815,6.47-25.9h3.837L16.856-9.815H13.249l-1.631-4.228H4.976L3.322-9.815ZM6.01-16.708h4.6l-2.3-5.929Zm16.108,3.883-.023-4-3.746-.023-.023-2.344,3.791.023L22.1-23.234l2.436.023v4.021l3.746.023.023,2.344-3.769-.023v4.067Z" transform="translate(35.667 59.429)" fill="#003d13"></path></g><path id="Path_159" data-name="Path 159" d="M42.237,109.271h9.339l1.664,5.662H68.5l1.664-5.662h9.34l-1.225-4.165H43.461Zm.705,25.842h-5.6v-4.685h5.6c4.115,0,3.865,4.685,0,4.685m19.173,0h-5.6v-4.685h5.6c4.115,0,3.865,4.685,0,4.685m19.173,0h-5.6v-4.685h5.6c4.115,0,3.865,4.685,0,4.685m-38.726-8.349H37.347v-4.38h5.017c3.135,0,3.248,4.38.2,4.38m19.173,0H56.52v-4.38h5.017c3.135,0,3.248,4.38.2,4.38m19.173,0H75.692v-4.38h5.017c3.135,0,3.248,4.38.2,4.38M50.265,132.5c-.4-2.692-1.483-3.337-3.653-4.294a4.823,4.823,0,0,0,2.649-4.306c0-3.869-3.169-5.444-6.626-5.444H32.979v20.533h9.566c4.086,0,8.415-1.787,7.72-6.489m19.173,0c-.4-2.692-1.482-3.337-3.652-4.294a4.823,4.823,0,0,0,2.649-4.306c0-3.869-3.169-5.444-6.626-5.444H52.152v20.533h9.567c4.085,0,8.415-1.787,7.719-6.489m19.173,0c-.4-2.692-1.482-3.337-3.652-4.294a4.823,4.823,0,0,0,2.649-4.306c0-3.869-3.169-5.444-6.626-5.444H71.324v20.533h9.567c4.085,0,8.415-1.787,7.719-6.489m1.854,5.815a.692.692,0,0,0-.034-.228.487.487,0,0,0-.114-.182.821.821,0,0,0-.213-.152,2.5,2.5,0,0,0-.33-.139,3.035,3.035,0,0,1-.291-.116.748.748,0,0,1-.172-.107.293.293,0,0,1-.081-.113.384.384,0,0,1-.021-.131.342.342,0,0,1,.026-.131.28.28,0,0,1,.082-.108.427.427,0,0,1,.144-.075.713.713,0,0,1,.212-.028.806.806,0,0,1,.311.055,1.028,1.028,0,0,1,.26.16l.17-.2a1.291,1.291,0,0,0-.318-.182,1.243,1.243,0,0,0-.712-.027.683.683,0,0,0-.235.117.567.567,0,0,0-.151.187.553.553,0,0,0-.054.248.643.643,0,0,0,.035.222.462.462,0,0,0,.116.174.867.867,0,0,0,.211.146,2.359,2.359,0,0,0,.325.134,2.205,2.205,0,0,1,.272.111.891.891,0,0,1,.175.111.324.324,0,0,1,.094.122.38.38,0,0,1,.027.146.348.348,0,0,1-.137.292.6.6,0,0,1-.376.106.77.77,0,0,1-.34-.076,1.211,1.211,0,0,1-.293-.2l-.177.192a1.159,1.159,0,0,0,.349.23,1.1,1.1,0,0,0,.451.091,1.04,1.04,0,0,0,.334-.05.764.764,0,0,0,.248-.136.571.571,0,0,0,.155-.205.623.623,0,0,0,.053-.255m2.471.609v-2.317h-.289L92.078,138l-.046.112c-.017.042-.033.084-.049.126s-.031.082-.044.119-.023.068-.031.092c-.007-.024-.017-.054-.03-.091l-.044-.118c-.016-.042-.033-.084-.049-.126s-.033-.081-.046-.116l-.562-1.387h-.3v2.317h.255v-1.817l.026.081c.01.032.022.065.034.1l.039.105c.014.037.028.069.041.1l.626,1.493.637-1.493c.013-.031.027-.064.041-.1s.027-.07.041-.1.025-.067.036-.1l.026-.081v1.817Z" transform="translate(-32.979 -48.149)" fill="#003d13" fill-rule="evenodd"></path></g></svg>