<svg xmlns="http://www.w3.org/2000/svg" xmlns:xlink="http://www.w3.org/1999/xlink" id="icon-price" width="78.404" height="89.183" viewBox="0 0 78.404 89.183"><defs><clipPath id="clip-path"><rect id="Rectangle_16" data-name="Rectangle 16" width="78.404" height="89.183" fill="#003d13"></rect></clipPath></defs><g id="Group_20" data-name="Group 20" clip-path="url(#clip-path)"><path id="Path_146" data-name="Path 146" d="M206.817,0a3.152,3.152,0,0,1,1.933,3.414c-.082,1.474,0,2.957-.022,4.436a2.613,2.613,0,1,1-5.216,0c-.018-1.479.061-2.962-.022-4.436A3.152,3.152,0,0,1,205.424,0Z" transform="translate(-159.093)" fill="#000422"></path><path id="Path_147" data-name="Path 147" d="M145.428,98.915h.941q10.012,0,20.024,0a5.273,5.273,0,0,1,5.243,3.42,5.176,5.176,0,0,1-3.325,6.76c-.185.062-.368.132-.735.264,2.778.836,4.418,2.534,4.364,5.345a5.083,5.083,0,0,1-4.06,5.01,15.668,15.668,0,0,1,2.7,1.855,4.773,4.773,0,0,1,.966,5.485,5.019,5.019,0,0,1-4.688,3.19c-1.378.063-2.76.012-4.162.075a5.419,5.419,0,0,1,3.694,3.29,5.192,5.192,0,0,1-4.319,7.057,10.323,10.323,0,0,1-1.217.045c-7.429,0-14.858-.042-22.287.02a32.136,32.136,0,0,1-11.014-1.77c-2.378-.833-4.773-1.618-7.174-2.384a.8.8,0,0,1-.658-.912q.022-18.2.007-36.391c0-.425-.01-.752.543-.9,5.117-1.37,8.436-4.886,10.944-9.314A59.353,59.353,0,0,0,136.426,75.1c.489-1.8,1.376-2.446,3.24-2.492a8.206,8.206,0,0,1,7.185,3.142,8.559,8.559,0,0,1,1.625,5.123,47.183,47.183,0,0,1-2.823,17.061c-.084.247-.161.5-.233.747a.964.964,0,0,0,.008.235" transform="translate(-93.602 -56.765)" fill="#003d13"></path><path id="Path_148" data-name="Path 148" d="M0,195.3q0-11.4,0-22.806c0-2.282.943-3.23,3.212-3.231q4.657,0,9.314,0c5.023.008,8.37,3.327,8.372,8.325q.01,17.845,0,35.689a7.771,7.771,0,0,1-5.88,7.94,9.024,9.024,0,0,1-2.32.284c-3.22.03-6.441.017-9.662.011C1,221.511,0,220.5,0,218.456Q0,206.879,0,195.3m13.085,15.757a2.606,2.606,0,1,0-2.628-2.584,2.63,2.63,0,0,0,2.628,2.584" transform="translate(0 -132.338)" fill="#000422"></path><path id="Path_149" data-name="Path 149" d="M126.88,34.862a2.843,2.843,0,0,1,1.573-2.274,2.307,2.307,0,0,1,2.7.264c1.466,1.358,2.9,2.765,4.234,4.248a2.569,2.569,0,0,1-3.626,3.568c-1.46-1.321-2.843-2.733-4.179-4.181a5.387,5.387,0,0,1-.7-1.624" transform="translate(-99.202 -25.237)" fill="#000422"></path><path id="Path_150" data-name="Path 150" d="M269.052,31.88a2.829,2.829,0,0,1,2.383,1.538,2.294,2.294,0,0,1-.228,2.7c-1.35,1.473-2.759,2.9-4.239,4.243a2.57,2.57,0,0,1-3.566-3.647c1.307-1.434,2.7-2.8,4.119-4.119a5.488,5.488,0,0,1,1.531-.713" transform="translate(-205.474 -24.926)" fill="#000422"></path></g></svg>