<svg xmlns="http://www.w3.org/2000/svg" id="icon-customers" width="96.343" height="89.183" viewBox="0 0 96.343 89.183"><path id="Path_133" data-name="Path 133" d="M155.021,44.753A11.152,11.152,0,1,1,143.868,33.6a11.152,11.152,0,0,1,11.152,11.152" transform="translate(-123.831 -33.601)" fill="#003d13"></path><path id="Path_134" data-name="Path 134" d="M130.966,179.278a11.75,11.75,0,0,0-10.138-5.677h-8.314a11.837,11.837,0,0,0-11.76,10.442l-1.115,9.631a2.631,2.631,0,0,0,1.926,2.737,72.67,72.67,0,0,0,15.106,1.52,65.984,65.984,0,0,0,7.807-.405l1.014-8.314a16.181,16.181,0,0,1,5.474-9.935Z" transform="translate(-96.735 -148.255)" fill="#003d13"></path><path id="Path_135" data-name="Path 135" d="M466.381,44.753A11.152,11.152,0,1,1,455.228,33.6a11.152,11.152,0,0,1,11.152,11.152" transform="translate(-378.822 -33.601)" fill="#003d13"></path><path id="Path_136" data-name="Path 136" d="M441.472,197.831a72.721,72.721,0,0,0,15.106-1.52,2.56,2.56,0,0,0,1.926-2.738l-1.115-9.631a11.908,11.908,0,0,0-11.76-10.341h-8.314a11.582,11.582,0,0,0-10.037,5.677,14.732,14.732,0,0,1,5.373,9.935l1.014,8.314c2.535.2,5.171.3,7.807.3Z" transform="translate(-365.065 -148.255)" fill="#003d13"></path><path id="Path_137" data-name="Path 137" d="M277.063,204.4H268.75a11.837,11.837,0,0,0-11.76,10.442l-1.115,9.631a2.531,2.531,0,0,0,1.926,2.737,75.8,75.8,0,0,0,30.212,0,2.56,2.56,0,0,0,1.926-2.737l-1.115-9.631A11.837,11.837,0,0,0,277.063,204.4Z" transform="translate(-224.684 -173.479)" fill="#003d13"></path><path id="Path_138" data-name="Path 138" d="M310.7,75.55A11.152,11.152,0,1,1,299.548,64.4,11.153,11.153,0,0,1,310.7,75.55" transform="translate(-251.327 -58.823)" fill="#003d13"></path><path id="Path_139" data-name="Path 139" d="M110.569,356l-7-.608a1.685,1.685,0,0,1-1.419-1.014l-2.636-6.387a1.692,1.692,0,0,0-3.143,0l-2.738,6.488a1.525,1.525,0,0,1-1.419,1.014l-7,.506a1.686,1.686,0,0,0-1.014,2.94l5.272,4.562a1.545,1.545,0,0,1,.507,1.723l-1.622,6.793a1.677,1.677,0,0,0,2.535,1.825l5.981-3.65a1.742,1.742,0,0,1,1.723,0l5.981,3.65a1.682,1.682,0,0,0,2.535-1.825l-1.419-6.792a2.08,2.08,0,0,1,.507-1.723l5.272-4.562a1.642,1.642,0,0,0-.913-2.94Z" transform="translate(-83.637 -290.199)" fill="#000422"></path><path id="Path_140" data-name="Path 140" d="M297.709,384.654l-7-.608a1.685,1.685,0,0,1-1.419-1.014l-2.738-6.488a1.692,1.692,0,0,0-3.143,0l-2.737,6.488a1.525,1.525,0,0,1-1.419,1.014l-7,.608a1.686,1.686,0,0,0-1.014,2.94l5.272,4.562a1.545,1.545,0,0,1,.507,1.723l-1.622,6.793a1.677,1.677,0,0,0,2.535,1.825l5.981-3.65a1.742,1.742,0,0,1,1.723,0l5.981,3.65a1.682,1.682,0,0,0,2.535-1.825l-1.622-6.793a2.08,2.08,0,0,1,.507-1.723l5.272-4.562a1.544,1.544,0,0,0-.607-2.94Z" transform="translate(-236.814 -313.586)" fill="#000422"></path><path id="Path_141" data-name="Path 141" d="M486.682,359.036a1.678,1.678,0,0,0-1.014-2.94l-7-.608a1.685,1.685,0,0,1-1.419-1.014l-2.636-6.488a1.692,1.692,0,0,0-3.143,0l-2.737,6.488a1.525,1.525,0,0,1-1.419,1.014l-6.894.506a1.686,1.686,0,0,0-1.014,2.94l5.272,4.562a1.545,1.545,0,0,1,.507,1.723l-1.622,6.793a1.677,1.677,0,0,0,2.535,1.825l5.981-3.65a1.742,1.742,0,0,1,1.723,0l5.981,3.65a1.682,1.682,0,0,0,2.535-1.825L480.9,365.22a2.08,2.08,0,0,1,.507-1.723Z" transform="translate(-390.912 -290.198)" fill="#000422"></path></svg>