<svg xmlns="http://www.w3.org/2000/svg" id="icon-30-years" width="65.189" height="90.844" viewBox="0 0 65.189 90.844"><path id="Path_153" data-name="Path 153" d="M29.15,286.134c-3.292-2.653-6.573-5.32-9.894-7.938a2.072,2.072,0,0,0-1.26-.174c-3.637.193-7.273.413-10.909.62-.322.018-.647,0-1.117,0l7.219-22.565a2.917,2.917,0,0,1,2.324,1.47c1.242,2.185,2.626,4.289,3.926,6.442a.962.962,0,0,0,1.125.551q3.913-.539,7.844-.94a2.581,2.581,0,0,1,1.478.341c1.576.937,3.09,1.98,4.659,2.929a.9.9,0,0,1,.469,1.267c-1.852,5.677-3.665,11.366-5.483,17.054-.1.3-.137.626-.2.94Z" transform="translate(-4.553 -195.29)" fill="#000422"></path><path id="Path_154" data-name="Path 154" d="M151.688,286.114c-.682-2.227-1.346-4.46-2.048-6.68-1.194-3.776-2.395-7.551-3.638-11.312a.9.9,0,0,1,.473-1.264q2.278-1.377,4.489-2.865a2.492,2.492,0,0,1,1.827-.435c2.553.333,5.114.608,7.663.965a.96.96,0,0,0,1.124-.553c1.3-2.154,2.685-4.256,3.925-6.442a3.02,3.02,0,0,1,2.321-1.475l7.231,22.595c-1.633-.081-3.154-.151-4.674-.235-2.572-.142-5.143-.3-7.716-.432a1.46,1.46,0,0,0-.91.188c-3.309,2.632-6.6,5.291-9.889,7.944Z" transform="translate(-111.271 -195.27)" fill="#000422"></path><path id="Path_155" data-name="Path 155" d="M18.354,3.192c2.446.3,4.648.592,6.855.825a2.1,2.1,0,0,0,1.229-.261q2.8-1.714,5.542-3.53a.972.972,0,0,1,1.256.008c1.8,1.192,3.621,2.358,5.466,3.483a2.247,2.247,0,0,0,1.306.293c2.149-.218,4.293-.489,6.435-.776a1,1,0,0,1,1.131.585q1.659,2.783,3.4,5.514a2.1,2.1,0,0,0,.985.784q3.085,1.119,6.209,2.128a.906.906,0,0,1,.746.916q.3,3.36.713,6.71a1.814,1.814,0,0,0,.52.958c1.522,1.536,3.055,3.061,4.629,4.544a1.014,1.014,0,0,1,.278,1.3q-1.149,3.026-2.193,6.092a2.089,2.089,0,0,0,0,1.257c.706,2.071,1.456,4.127,2.227,6.174a.912.912,0,0,1-.263,1.148q-2.372,2.276-4.674,4.625a2.1,2.1,0,0,0-.538,1.131c-.273,2.2-.463,4.416-.75,6.617a1.254,1.254,0,0,1-.719.806c-2.028.739-4.089,1.387-6.115,2.129a2.4,2.4,0,0,0-1.11.893c-1.159,1.788-2.268,3.608-3.362,5.436a.953.953,0,0,1-1.119.558c-2.168-.306-4.346-.555-6.525-.769a2.127,2.127,0,0,0-1.228.3q-2.764,1.691-5.469,3.479a.972.972,0,0,1-1.259-.018c-1.754-1.157-3.517-2.3-5.323-3.376a2.914,2.914,0,0,0-1.646-.36c-2.092.187-4.179.447-6.26.741a.9.9,0,0,1-1.064-.5c-1.1-1.827-2.194-3.655-3.368-5.433a2.877,2.877,0,0,0-1.323-1.028c-1.966-.734-3.962-1.389-5.957-2.042a.919.919,0,0,1-.745-.924c-.2-2.24-.443-4.478-.711-6.711a1.669,1.669,0,0,0-.468-.892c-1.52-1.538-3.046-3.072-4.62-4.554a1.114,1.114,0,0,1-.3-1.445c.747-1.929,1.448-3.879,2.089-5.846a2.706,2.706,0,0,0-.014-1.582C1.58,30.567.844,28.568.094,26.576a.917.917,0,0,1,.274-1.148c1.563-1.494,3.111-3,4.622-4.551a2.243,2.243,0,0,0,.583-1.2c.278-2.2.51-4.411.709-6.621.049-.541.349-.665.766-.8,2.047-.686,4.094-1.369,6.122-2.109a2.254,2.254,0,0,0,1.058-.826c1.186-1.84,2.3-3.726,3.473-5.576a2.383,2.383,0,0,1,.653-.544M9.6,33.375a22.992,22.992,0,1,0,23.009-23,22.99,22.99,0,0,0-23.009,23" transform="translate(0 0)" fill="#003d13"></path><path id="Subtraction_1" data-name="Subtraction 1" d="M17.639,35.334H17.59A17.653,17.653,0,0,1,5.177,5.19,17.608,17.608,0,0,1,17.632,0h.04a17.424,17.424,0,0,1,6.85,1.391,17.666,17.666,0,0,1-6.882,33.943Zm6.318-24.9a6.168,6.168,0,0,0-3.439.975A6.514,6.514,0,0,0,18.2,14.124a9.386,9.386,0,0,0-.825,4.05,9.4,9.4,0,0,0,.825,4.039,6.5,6.5,0,0,0,2.314,2.721,6.59,6.59,0,0,0,6.9,0,6.5,6.5,0,0,0,2.314-2.721,9.4,9.4,0,0,0,.825-4.039,9.377,9.377,0,0,0-.825-4.05,6.514,6.514,0,0,0-2.314-2.711A6.2,6.2,0,0,0,23.957,10.439ZM6.066,21.816h0L4.18,23.573A6.777,6.777,0,0,0,6.687,25.3a8.473,8.473,0,0,0,3.214.611,7.423,7.423,0,0,0,2.989-.568,4.916,4.916,0,0,0,2.036-1.575,3.76,3.76,0,0,0,.739-2.271,2.908,2.908,0,0,0-.868-2.164,4.522,4.522,0,0,0-2.389-1.2,4.084,4.084,0,0,0,2.047-1.3,3.336,3.336,0,0,0,.8-2.132,3.88,3.88,0,0,0-.7-2.218,4.566,4.566,0,0,0-1.875-1.5,6.643,6.643,0,0,0-2.764-.547,7.563,7.563,0,0,0-3.1.654,7.349,7.349,0,0,0-2.518,1.832l1.907,1.757A5.671,5.671,0,0,1,7.9,13.31a4.412,4.412,0,0,1,1.918-.386,3.1,3.1,0,0,1,1.35.278,2.408,2.408,0,0,1,.921.75,1.817,1.817,0,0,1,.343,1.093,1.906,1.906,0,0,1-.579,1.446,2.12,2.12,0,0,1-1.51.526h-1.7l-.022,2.314h1.907a2.813,2.813,0,0,1,1.222.246,2.059,2.059,0,0,1,.814.675,1.878,1.878,0,0,1,.322,1.029,1.789,1.789,0,0,1-.386,1.146,2.612,2.612,0,0,1-1.05.761,3.775,3.775,0,0,1-1.458.259H9.858a5.31,5.31,0,0,1-2.089-.365,5.351,5.351,0,0,1-1.7-1.264Zm17.891,1.543a3.223,3.223,0,0,1-1.971-.621,3.986,3.986,0,0,1-1.3-1.8,7.6,7.6,0,0,1-.461-2.764A7.578,7.578,0,0,1,20.69,15.4a3.99,3.99,0,0,1,1.3-1.789,3.223,3.223,0,0,1,1.971-.621,3.26,3.26,0,0,1,1.993.621,4,4,0,0,1,1.3,1.789,7.588,7.588,0,0,1,.461,2.774,7.615,7.615,0,0,1-.461,2.764,3.994,3.994,0,0,1-1.3,1.8A3.26,3.26,0,0,1,23.957,23.359Z" transform="translate(14.94 15.713)" fill="#003d13" stroke="rgba(0,0,0,0)" stroke-miterlimit="10" stroke-width="1"></path></svg>